# File created by Blade
# Date/Time:  Wed Apr 08 17:19:54 2015
# Frame Rate: 120.000 fps
#------------------------------------------------------
:FULLY-SPECIFIED
:DEGREES
1009
root 6.005455 36.725294 0.352686 150.792432 -63.037143 -143.259639
Spine 9.615397 -0.576246 0.784830
Head 4.181249 5.385377 21.089785
LeftShoulder -8.525887 16.145263 17.538171
LeftArm 14.723222 21.570911 -76.703586
LeftForeArm 23.082665 -0.000000 18.895590
LeftHand -10.372274 0.000000 -18.716111
LeftHandThumb1 -26.253704 0.000000 33.147579
RightShoulder -43.016365 -51.143683 34.636364
RightArm 46.120939 -19.532762 63.647387
RightForeArm 35.621925 0.000000 13.764171
RightHand -4.363692 -0.000000 6.440499
RightHandThumb1 -24.326973 -0.000000 -32.862282
LeftUpLeg -2.715878 38.296403 4.390940
LeftLeg 7.514397 -0.000000 -0.000000
LeftFoot -16.874662 15.388023 -4.314789
LeftToeBase 4.627651 -0.000000 -0.000000
RightUpLeg 1.450274 -14.115197 -24.689496
RightLeg 147.942290 -0.000000 -0.000000
RightFoot 40.175922 7.665308 13.667277
RightToeBase 18.943096 -0.000000 -0.000000
1010
root 6.043053 36.718461 0.358519 151.256754 -62.887888 -143.564003
Spine 9.671276 -0.497549 0.671912
Head 3.986658 5.269402 21.080408
LeftShoulder -8.486979 16.175961 17.518592
LeftArm 14.615900 21.428261 -76.797167
LeftForeArm 23.184304 -0.000000 18.810039
LeftHand -10.340080 -0.000000 -19.002860
LeftHandThumb1 -26.253704 0.000000 33.147579
RightShoulder -42.941966 -51.123371 34.555916
RightArm 46.074552 -19.652079 63.618596
RightForeArm 35.456836 -0.000000 13.747728
RightHand -4.441730 -0.000000 6.560170
RightHandThumb1 -24.326973 -0.000000 -32.862282
LeftUpLeg -3.080855 38.187282 4.177777
LeftLeg 7.675971 -0.000000 -0.000000
LeftFoot -16.964684 15.642915 -4.366117
LeftToeBase 4.638788 -0.000000 -0.000000
RightUpLeg 1.483650 -13.837365 -24.405522
RightLeg 147.910227 -0.000000 -0.000000
RightFoot 40.237628 7.460039 13.625665
RightToeBase 19.013685 -0.000000 -0.000000
1011
root 6.081537 36.711551 0.362378 151.709577 -62.712345 -143.839196
Spine 9.704057 -0.428716 0.584877
Head 3.815810 5.193192 21.086460
LeftShoulder -8.494643 16.180966 17.488044
LeftArm 14.525418 21.525636 -76.817511
LeftForeArm 23.137945 0.000000 18.673563
LeftHand -10.314057 -0.000000 -18.886355
LeftHandThumb1 -26.253704 0.000000 33.147579
RightShoulder -42.900303 -51.093339 34.502845
RightArm 46.056121 -19.772189 63.519475
RightForeArm 35.396183 0.000000 13.729968
RightHand -4.511207 -0.000000 6.610750
RightHandThumb1 -24.326973 -0.000000 -32.862282
LeftUpLeg -3.464050 38.129786 3.988006
LeftLeg 7.863639 -0.000000 -0.000000
LeftFoot -17.034659 15.889223 -4.239828
LeftToeBase 4.686083 -0.000000 -0.000000
RightUpLeg 1.499454 -13.541576 -24.094204
RightLeg 147.873467 -0.000000 -0.000000
RightFoot 40.273452 7.541724 13.332796
RightToeBase 19.134711 -0.000000 -0.000000
1012
root 6.116861 36.699051 0.371071 152.332572 -62.573221 -144.303038
Spine 9.710588 -0.368868 0.392724
Head 3.710834 5.095508 21.118843
LeftShoulder -8.508085 16.255913 17.479175
LeftArm 14.465414 21.632369 -76.830611
LeftForeArm 23.262890 -0.000000 18.601413
LeftHand -10.633631 -0.000000 -18.624451
LeftHandThumb1 -26.253704 0.000000 33.147579
RightShoulder -42.925611 -51.088338 34.476794
RightArm 46.066563 -19.870448 63.443377
RightForeArm 35.175341 -0.000000 13.682275
RightHand -4.515802 -0.000000 6.737485
RightHandThumb1 -24.326973 -0.000000 -32.862282
LeftUpLeg -3.818227 38.138646 3.688056
LeftLeg 7.984045 -0.000000 -0.000000
LeftFoot -17.093612 16.081925 -4.175619
LeftToeBase 4.677079 -0.000000 -0.000000
RightUpLeg 1.657368 -12.933136 -23.894251
RightLeg 147.806383 -0.000000 -0.000000
RightFoot 40.342567 8.039857 13.444353
RightToeBase 18.679146 -0.000000 -0.000000
1013
root 6.152035 36.690526 0.382089 152.904251 -62.405605 -144.697334
Spine 9.710599 -0.315843 0.257628
Head 3.583364 5.017331 21.147166
LeftShoulder -8.554973 16.296651 17.442671
LeftArm 14.410856 21.750500 -76.867963
LeftForeArm 23.201040 0.000000 18.425145
LeftHand -10.424582 -0.000000 -18.866420
LeftHandThumb1 -26.253704 0.000000 33.147579
RightShoulder -42.955335 -51.064024 34.480911
RightArm 46.064217 -19.928667 63.324026
RightForeArm 35.036915 -0.000000 13.686432
RightHand -4.593059 -0.000000 6.816718
RightHandThumb1 -24.326973 -0.000000 -32.862282
LeftUpLeg -4.184794 38.258138 3.418511
LeftLeg 8.100718 -0.000000 -0.000000
LeftFoot -17.142728 16.184123 -4.104978
LeftToeBase 4.709703 -0.000000 -0.000000
RightUpLeg 1.721525 -12.508643 -23.690573
RightLeg 147.756009 -0.000000 -0.000000
RightFoot 40.336601 8.246567 13.360927
RightToeBase 18.569651 -0.000000 -0.000000
